grf
version=1
nRows=19
nColumns=37
inDegrees=no
endheader
time	ground_force_1_vx	ground_force_1_vy	ground_force_1_vz	ground_force_1_px	ground_force_1_py	ground_force_1_pz	ground_moment_1_mx	ground_moment_1_my	ground_moment_1_mz	ground_force_2_vx	ground_force_2_vy	ground_force_2_vz	ground_force_2_px	ground_force_2_py	ground_force_2_pz	ground_moment_2_mx	ground_moment_2_my	ground_moment_2_mz	ground_force_3_vx	ground_force_3_vy	ground_force_3_vz	ground_force_3_px	ground_force_3_py	ground_force_3_pz	ground_moment_3_mx	ground_moment_3_my	ground_moment_3_mz	ground_force_4_vx	ground_force_4_vy	ground_force_4_vz	ground_force_4_px	ground_force_4_py	ground_force_4_pz	ground_moment_4_mx	ground_moment_4_my	ground_moment_4_mz
      0.00000000	      0.00000000	     -0.00000000	      0.00000000	      0.00000000	      0.00000000	      0.00000000	      0.00000000	      0.00000000	      0.00000000	      1.97432768	     33.11779022	   -410.08819580	   -264.39193944	  -1040.66412731	      0.00000000	      0.00000000	     -0.00000000	   2629.45150474	     -2.26780774	    -54.70963268	   -494.30929565	   -258.89179382	   -710.25225963	      0.00000000	     -0.00000000	     -0.00000000	  -4113.88022022	      0.00000000	     -0.00000000	      0.00000000	      0.00000000	      0.00000000	      0.00000000	      0.00000000	      0.00000000	      0.00000000
      0.01000000	      0.00000000	     -0.00000000	      0.00000000	      0.00000000	      0.00000000	      0.00000000	      0.00000000	      0.00000000	      0.00000000	      2.80416036	     32.77331924	   -409.39395142	   -266.35205148	  -1040.70373494	      0.00000000	      0.00000000	      0.00000000	   2512.75663978	     -2.80019431	    -55.05905508	   -492.44076538	   -257.85200056	   -710.00110357	      0.00000000	      0.00000000	     -0.00000000	  -4086.66306987	      0.00000000	     -0.00000000	      0.00000000	      0.00000000	      0.00000000	      0.00000000	      0.00000000	      0.00000000	      0.00000000
      0.02000000	      0.00000000	     -0.00000000	      0.00000000	      0.00000000	      0.00000000	      0.00000000	      0.00000000	      0.00000000	      0.00000000	      3.35150623	     32.78595734	   -409.38394165	   -268.69458407	  -1041.21159470	      0.00000000	      0.00000000	      0.00000000	   2556.45810924	     -3.23200829	    -55.31579562	   -491.50103760	   -257.31591898	   -709.21854030	      0.00000000	      0.00000000	     -0.00000000	  -4073.22023334	      0.00000000	     -0.00000000	      0.00000000	      0.00000000	      0.00000000	      0.00000000	      0.00000000	      0.00000000	      0.00000000
      0.03000000	      0.00000000	     -0.00000000	      0.00000000	      0.00000000	      0.00000000	      0.00000000	      0.00000000	      0.00000000	      0.00000000	      3.86098886	     32.66103363	   -409.18365479	   -271.09499863	  -1040.18575342	      0.00000000	      0.00000000	      0.00000000	   2675.27022972	     -3.75010430	    -55.85743299	   -488.70925903	   -256.35014859	   -710.16160391	      0.00000000	     -0.00000000	     -0.00000000	  -4197.04732020	      0.00000000	     -0.00000000	      0.00000000	      0.00000000	      0.00000000	      0.00000000	      0.00000000	      0.00000000	      0.00000000
      0.04000000	      0.00000000	     -0.00000000	      0.00000000	      0.00000000	      0.00000000	      0.00000000	      0.00000000	      0.00000000	      0.00000000	      3.78486705	     32.44346619	   -410.19342041	   -273.00001830	  -1040.46395185	      0.00000000	      0.00000000	      0.00000000	   2609.76993611	     -4.60063665	    -56.46211202	   -489.01583862	   -255.35142170	   -709.27573178	      0.00000000	      0.00000000	     -0.00000000	  -4058.91177822	      0.00000000	     -0.00000000	      0.00000000	      0.00000000	      0.00000000	      0.00000000	      0.00000000	      0.00000000	      0.00000000
      0.05000000	      0.00000000	     -0.00000000	      0.00000000	      0.00000000	      0.00000000	      0.00000000	      0.00000000	      0.00000000	      0.00000000	      3.47920990	     32.72376633	   -409.63760376	   -274.28010315	  -1039.43819875	      0.00000000	      0.00000000	      0.00000000	   2503.31723352	     -5.43685935	    -57.10623121	   -489.36074829	   -254.64492228	   -709.20507815	      0.00000000	     -0.00000000	     -0.00000000	  -4129.94749278	      0.00000000	     -0.00000000	      0.00000000	      0.00000000	      0.00000000	      0.00000000	      0.00000000	      0.00000000	      0.00000000
      0.06000000	      0.00000000	     -0.00000000	      0.00000000	      0.00000000	      0.00000000	      0.00000000	      0.00000000	      0.00000000	      0.00000000	      3.50406766	     32.21406555	   -409.74087524	   -275.80095497	  -1039.59154371	      0.00000000	      0.00000000	      0.00000000	   2513.27900187	     -5.51288973	    -58.51950025	   -490.40869141	   -253.73287264	   -709.31183042	      0.00000000	      0.00000000	     -0.00000000	  -4043.59445386	      0.00000000	     -0.00000000	      0.00000000	      0.00000000	      0.00000000	      0.00000000	      0.00000000	      0.00000000	      0.00000000
      0.07000000	      0.00000000	     -0.00000000	      0.00000000	      0.00000000	      0.00000000	      0.00000000	      0.00000000	      0.00000000	      0.00000000	      3.23601127	     31.71698761	   -411.56112671	   -277.90884096	  -1040.63766978	      0.00000000	      0.00000000	      0.00000000	   2467.67073566	     -5.55097815	    -59.60409879	   -493.94647217	   -252.29976288	   -708.32602481	      0.00000000	     -0.00000000	     -0.00000000	  -4052.30764969	      0.00000000	     -0.00000000	      0.00000000	      0.00000000	      0.00000000	      0.00000000	      0.00000000	      0.00000000	      0.00000000
      0.08000000	      0.00000000	     -0.00000000	      0.00000000	      0.00000000	      0.00000000	      0.00000000	      0.00000000	      0.00000000	      0.00000000	      3.46874166	     31.98417091	   -409.89236450	   -278.87293827	  -1038.82376221	      0.00000000	      0.00000000	      0.00000000	   2466.76925628	     -6.07004266	    -60.54894585	   -495.55087280	   -252.12656753	   -707.96055908	      0.00000000	      0.00000000	     -0.00000000	  -4123.63780518	      0.00000000	     -0.00000000	      0.00000000	      0.00000000	      0.00000000	      0.00000000	      0.00000000	      0.00000000	      0.00000000
      0.09000000	      0.00000000	     -0.00000000	      0.00000000	      0.00000000	      0.00000000	      0.00000000	      0.00000000	      0.00000000	      0.00000000	      4.04227209	     31.70668793	   -410.39508057	   -280.34912825	  -1039.22053706	      0.00000000	      0.00000000	      0.00000000	   2500.96541925	     -6.42476426	    -61.16951314	   -496.53488159	   -250.71967779	   -708.12905602	      0.00000000	      0.00000000	     -0.00000000	  -4030.76213908	      0.00000000	     -0.00000000	      0.00000000	      0.00000000	      0.00000000	      0.00000000	      0.00000000	      0.00000000	      0.00000000
      0.10000000	      0.00000000	     -0.00000000	      0.00000000	      0.00000000	      0.00000000	      0.00000000	      0.00000000	      0.00000000	      0.00000000	      4.01447296	     31.24226189	   -410.09805298	   -281.71360654	  -1039.71916573	      0.00000000	      0.00000000	      0.00000000	   2269.44214726	     -6.77946681	    -62.03910005	   -496.43920898	   -249.81212086	   -707.30424577	      0.00000000	      0.00000000	     -0.00000000	  -4138.26722280	      0.00000000	     -0.00000000	      0.00000000	      0.00000000	      0.00000000	      0.00000000	      0.00000000	      0.00000000	      0.00000000
      0.11000000	      0.00000000	     -0.00000000	      0.00000000	      0.00000000	      0.00000000	      0.00000000	      0.00000000	      0.00000000	      0.00000000	      5.07911110	     31.19564056	   -410.86251831	   -284.02950396	  -1039.62170149	      0.00000000	      0.00000000	      0.00000000	   2294.02849679	     -7.68052364	    -62.78758173	   -495.59304810	   -248.47454204	   -707.53850217	      0.00000000	      0.00000000	     -0.00000000	  -3851.04784820	      0.00000000	     -0.00000000	      0.00000000	      0.00000000	      0.00000000	      0.00000000	      0.00000000	      0.00000000	      0.00000000
      0.12000000	      0.00000000	     -0.00000000	      0.00000000	      0.00000000	      0.00000000	      0.00000000	      0.00000000	      0.00000000	      0.00000000	      5.76139402	     30.92824936	   -412.51416016	   -285.85855718	  -1040.29282494	      0.00000000	     -0.00000000	      0.00000000	   2299.91882569	     -7.94675855	    -63.17284705	   -494.34252930	   -246.73934197	   -707.52886613	      0.00000000	      0.00000000	     -0.00000000	  -3934.60580787	      0.00000000	     -0.00000000	      0.00000000	      0.00000000	      0.00000000	      0.00000000	      0.00000000	      0.00000000	      0.00000000
      0.13000000	      0.00000000	     -0.00000000	      0.00000000	      0.00000000	      0.00000000	      0.00000000	      0.00000000	      0.00000000	      0.00000000	      6.54953432	     31.01737976	   -413.86801147	   -287.68785722	  -1040.49381309	      0.00000000	     -0.00000000	      0.00000000	   2072.52710161	     -8.59043394	    -63.95935365	   -494.80496216	   -245.63598456	   -706.61055150	      0.00000000	      0.00000000	     -0.00000000	  -4023.75402331	      0.00000000	     -0.00000000	      0.00000000	      0.00000000	      0.00000000	      0.00000000	      0.00000000	      0.00000000	      0.00000000
      0.14000000	      0.00000000	     -0.00000000	      0.00000000	      0.00000000	      0.00000000	      0.00000000	      0.00000000	      0.00000000	      0.00000000	      8.00550556	     30.46748924	   -412.54110718	   -289.60803370	  -1037.87220815	      0.00000000	      0.00000000	      0.00000000	   2239.37453067	     -9.44030467	    -64.51162637	   -494.28219604	   -243.84000558	   -707.12090116	      0.00000000	      0.00000000	     -0.00000000	  -3994.32543389	      0.00000000	     -0.00000000	      0.00000000	      0.00000000	      0.00000000	      0.00000000	      0.00000000	      0.00000000	      0.00000000
      0.15000000	      0.00000000	     -0.00000000	      0.00000000	      0.00000000	      0.00000000	      0.00000000	      0.00000000	      0.00000000	      0.00000000	      8.40119267	     30.70381737	   -415.71691895	   -291.66604601	  -1038.54094504	      0.00000000	      0.00000000	     -0.00000000	   2119.74818775	    -10.27541346	    -64.87976747	   -494.13531494	   -242.99499483	   -706.54818479	      0.00000000	      0.00000000	     -0.00000000	  -3970.28242596	      0.00000000	     -0.00000000	      0.00000000	      0.00000000	      0.00000000	      0.00000000	      0.00000000	      0.00000000	      0.00000000
      0.16000000	      0.00000000	     -0.00000000	      0.00000000	      0.00000000	      0.00000000	      0.00000000	      0.00000000	      0.00000000	      0.00000000	      8.96343040	     30.65083694	   -419.33056641	   -292.59242491	  -1038.47784147	      0.00000000	      0.00000000	      0.00000000	   2063.56474056	    -10.63906290	    -65.62301543	   -492.79751587	   -241.35572581	   -706.00022707	      0.00000000	      0.00000000	     -0.00000000	  -3993.15036468	      0.00000000	     -0.00000000	      0.00000000	      0.00000000	      0.00000000	      0.00000000	      0.00000000	      0.00000000	      0.00000000
      0.17000000	      0.00000000	     -0.00000000	      0.00000000	      0.00000000	      0.00000000	      0.00000000	      0.00000000	      0.00000000	      0.00000000	      9.15200520	     30.65589523	   -421.69683838	   -292.71899114	  -1038.40532178	      0.00000000	      0.00000000	      0.00000000	   2202.78376477	    -11.42257791	    -66.01274772	   -490.76309204	   -239.61912718	   -706.39285649	      0.00000000	     -0.00000000	     -0.00000000	  -3900.96436014	      0.00000000	     -0.00000000	      0.00000000	      0.00000000	      0.00000000	      0.00000000	      0.00000000	      0.00000000	      0.00000000
      0.18000000	      0.00000000	     -0.00000000	      0.00000000	      0.00000000	      0.00000000	      0.00000000	      0.00000000	      0.00000000	      0.00000000	      8.64915848	     30.23132896	   -423.91357422	   -293.85184669	  -1039.09388890	      0.00000000	      0.00000000	      0.00000000	   1937.42653297	    -12.29433544	    -66.32467544	   -488.11395264	   -238.68312569	   -706.18514079	      0.00000000	      0.00000000	     -0.00000000	  -3755.17325048	      0.00000000	     -0.00000000	      0.00000000	      0.00000000	      0.00000000	      0.00000000	      0.00000000	      0.00000000	      0.00000000
